<?xml version="1.0" encoding="UTF-8"?>
<svg width="16px" height="16px" viewBox="0 0 16 16" version="1.1" xmlns="http://www.w3.org/2000/svg" xmlns:xlink="http://www.w3.org/1999/xlink">
    <g id="UI-Kit" stroke="none" stroke-width="1" fill="none" fill-rule="evenodd">
        <g id="04.Icons" transform="translate(-409.000000, -698.000000)" fill="#FFFFFF" fill-rule="nonzero">
            <g id="Icons/16px/Close" transform="translate(409.000000, 698.000000)">
                <path d="M14.7514502,15.8830286 L15.8830286,14.7514502 C16.0389905,14.5954883 16.0389905,14.3419647 15.8830286,14.185954 L9.69733703,8.00026246 L15.8830286,1.81457092 C16.0389905,1.65856018 16.0389905,1.40503663 15.8830286,1.24907472 L14.7514502,0.117496351 C14.5954883,-0.0384655587 14.3419647,-0.0384655587 14.185954,0.117496351 L8.00026246,6.30318789 L1.81457092,0.117008055 C1.65856018,-0.0390026849 1.40503663,-0.0390026849 1.24907472,0.117008055 L0.117008055,1.24853759 C-0.0390026849,1.40454833 -0.0390026849,1.65807188 0.117008055,1.81408262 L6.30318789,8.00026246 L0.117008055,14.185954 C-0.0390026849,14.3419647 -0.0390026849,14.5954883 0.117008055,14.7514502 L1.24853759,15.8830286 C1.40454833,16.0389905 1.65807188,16.0389905 1.81408262,15.8830286 L8.00026246,9.69733703 L14.185954,15.8830286 C14.3419647,16.0389905 14.5954883,16.0389905 14.7514502,15.8830286 Z" id="ï€"></path>
            </g>
        </g>
    </g>
</svg>