<svg width="15" height="18" viewBox="0 0 15 18" fill="none" xmlns="http://www.w3.org/2000/svg">
<rect opacity="0.01" y="0.428467" width="15" height="17.1429" fill="#D8D8D8"/>
<mask id="mask0_922_1324" style="mask-type:luminance" maskUnits="userSpaceOnUse" x="0" y="0" width="15" height="18">
<rect y="0.428467" width="15" height="17.1429" fill="white"/>
</mask>
<g mask="url(#mask0_922_1324)">
<path fill-rule="evenodd" clip-rule="evenodd" d="M13.5938 3.64275C13.8525 3.64275 14.0625 3.40275 14.0625 3.10704V2.03561C14.0625 1.73989 13.8525 1.4999 13.5938 1.4999H10.0781L9.80272 0.873773C9.69561 0.627954 9.41365 0.428467 9.17336 0.428467H5.82155C5.58211 0.428467 5.30245 0.627954 5.19728 0.873773L4.92188 1.4999H1.40625C1.1475 1.4999 0.9375 1.73989 0.9375 2.03561V3.10704C0.9375 3.40275 1.1475 3.64275 1.40625 3.64275H13.5938ZM11.7188 17.5713C12.495 17.5713 13.125 16.8513 13.125 15.9642V4.71418H1.875V15.9642C1.875 16.8513 2.505 17.5713 3.28125 17.5713H11.7188ZM10.3125 15.4285C10.0537 15.4285 9.84375 15.1885 9.84375 14.8928V7.39275C9.84375 7.09704 10.0537 6.85704 10.3125 6.85704C10.5713 6.85704 10.7812 7.09704 10.7812 7.39275V14.8928C10.7812 15.1885 10.5713 15.4285 10.3125 15.4285ZM7.5 15.4285C7.24125 15.4285 7.03125 15.1885 7.03125 14.8928V7.39275C7.03125 7.09704 7.24125 6.85704 7.5 6.85704C7.75875 6.85704 7.96875 7.09704 7.96875 7.39275V14.8928C7.96875 15.1885 7.75875 15.4285 7.5 15.4285ZM4.6875 15.4285C4.42875 15.4285 4.21875 15.1885 4.21875 14.8928V7.39275C4.21875 7.09704 4.42875 6.85704 4.6875 6.85704C4.94625 6.85704 5.15625 7.09704 5.15625 7.39275V14.8928C5.15625 15.1885 4.94625 15.4285 4.6875 15.4285Z" fill="white"/>
</g>
</svg>
