<svg width="10" height="10" viewBox="0 0 10 10" fill="none" xmlns="http://www.w3.org/2000/svg">
<path d="M9.57249 0.625003H7.16178L6.97294 0.259769C6.93294 0.181686 6.87132 0.116004 6.79501 0.0701125C6.71871 0.024221 6.63074 -5.91399e-05 6.54102 3.42436e-06H4.24481C4.15529 -0.000331156 4.06748 0.0238585 3.99145 0.069801C3.91541 0.115743 3.85423 0.18158 3.8149 0.259769L3.62606 0.625003H1.21535C1.1301 0.625003 1.04834 0.657927 0.988065 0.716532C0.927786 0.775137 0.893921 0.854623 0.893921 0.937503L0.893921 1.5625C0.893921 1.64538 0.927786 1.72487 0.988065 1.78347C1.04834 1.84208 1.1301 1.875 1.21535 1.875H9.57249C9.65774 1.875 9.7395 1.84208 9.79978 1.78347C9.86006 1.72487 9.89392 1.64538 9.89392 1.5625V0.937503C9.89392 0.854623 9.86006 0.775137 9.79978 0.716532C9.7395 0.657927 9.65774 0.625003 9.57249 0.625003ZM1.96267 9.12109C1.978 9.3591 2.08605 9.58249 2.26482 9.74577C2.4436 9.90906 2.67966 9.99997 2.92495 10H7.86289C8.10818 9.99997 8.34424 9.90906 8.52302 9.74577C8.70179 9.58249 8.80984 9.3591 8.82517 9.12109L9.25106 2.5H1.53678L1.96267 9.12109Z" fill="#282F33"/>
</svg>
