<svg width="49" height="36" viewBox="0 0 49 36" fill="none" xmlns="http://www.w3.org/2000/svg">
<path d="M29.6489 20.8358L29.5595 20.7393C29.4805 20.6393 21.6618 10.7251 20.297 8.97599C19.4347 7.87207 19.0405 7.55906 17.1429 8.90988C16.3689 9.46091 15.9293 10.0561 15.8357 10.679C15.7162 11.4732 16.1971 12.1224 16.2019 12.1289L25.7462 24.2379C25.8797 24.3535 26.3449 24.7322 26.9466 24.9609C27.783 25.2788 28.4905 25.1708 29.1102 24.6296C29.9318 23.9116 30.3531 23.1877 30.3619 22.4779C30.3738 21.5295 29.656 20.8425 29.6489 20.8358Z" fill="#8BA1AD"/>
<path d="M25.4039 9.11985C25.778 8.73303 26.2873 8.62699 26.649 8.65338L28.7969 8.5499C27.3984 6.75621 26.1988 5.2288 25.7341 4.66563C25.1934 4.0102 24.634 3.3328 22.5289 4.90879C20.8152 6.19187 21.3691 7.63495 21.5259 7.96174L25.6255 13.0957C25.2676 12.3188 25.0495 11.572 24.9631 10.9876C24.8424 10.1759 24.9908 9.54754 25.4039 9.11985Z" fill="#8BA1AD"/>
<path d="M31.583 1.25802C30.3422 -0.207717 30.0844 -0.513712 27.8837 0.989169C27.2093 1.44933 26.8209 1.94663 26.7285 2.46729C26.6245 3.05569 26.9303 3.55019 26.9754 3.61933L30.7805 8.45405L37.0947 8.15016C34.7472 5.18434 32.2794 2.08047 31.583 1.25802Z" fill="#8BA1AD"/>
<path d="M31.8624 20.7254C31.8624 20.7254 31.6077 20.5538 31.5067 20.4477L31.272 20.1714L28.22 16.3492C29.2252 17.0628 30.4746 17.5186 31.993 17.4583C33.396 17.4027 34.6213 17.3466 35.6111 17.2983C35.8259 17.587 36.1159 18.0904 36.104 18.6947C36.099 18.9409 36.0412 19.1887 35.9377 19.4375C35.7447 19.9014 35.3837 20.3683 34.8523 20.8327C34.2329 21.3739 33.5251 21.482 32.6887 21.1641C32.366 21.0415 32.085 20.8763 31.8706 20.731L31.8624 20.7254Z" fill="#8BA1AD"/>
<path d="M45.8701 15.6787L42.1559 11.0231C42.1482 11.0138 42.1412 11.0042 42.1339 10.9946C42.1307 10.9902 41.5579 10.2308 40.7372 9.96523C40.1339 9.77019 39.1112 9.74169 38.7525 9.74706L26.6678 10.3289C26.6127 10.3315 26.5968 10.3359 26.5651 10.332C26.5533 10.4011 26.5469 10.5314 26.5772 10.7349C26.741 11.8397 28.1309 15.9352 31.9344 15.7843C35.0939 15.6588 37.367 15.5311 37.9942 15.4944C38.0934 15.4818 38.1856 15.479 38.2677 15.4844C38.6981 15.5122 39.0331 15.8791 39.0322 16.3215C39.032 16.582 38.9136 16.8134 38.73 16.9671C38.7224 17.0041 38.7161 17.041 38.7036 17.0774C38.684 17.1356 37.549 20.5861 39.4118 23.8495C39.6485 24.2634 39.5126 24.796 39.1093 25.0387C38.9871 25.1122 38.854 25.1508 38.7215 25.1571C38.417 25.1718 38.1153 25.0167 37.9505 24.7282C37.258 23.5147 36.9043 22.2947 36.7473 21.1787C36.2505 21.7953 35.6162 22.3599 34.9332 22.6629C34.2027 22.9868 33.0689 23.1022 31.8702 22.5947C31.8484 22.7857 31.8154 22.9803 31.7749 23.1805C31.4219 24.9244 29.8411 26.2872 28.5787 26.5499C26.5578 26.9713 24.8027 25.5873 24.4432 25.194C24.4104 25.1582 24.3822 25.1223 24.3574 25.0863L14.2298 12.4052L5.73016 1.18667C5.69739 1.14322 5.66894 1.09697 5.64504 1.04815C5.64504 1.04815 5.29047 0.377064 4.58384 0.210051C4.44888 0.178284 4.30528 0.165904 4.15439 0.173378C3.6082 0.19954 2.96574 0.481242 2.26821 1.00424C1.4207 1.64005 0.966908 2.29479 0.920482 2.94953C0.862676 3.75913 1.45393 4.39518 1.45985 4.40149C1.48329 4.42508 1.50536 4.45007 1.52562 4.47623C1.59867 4.57013 8.91537 14.0004 17.5636 26.0143C24.4158 35.5331 30.3366 36.2437 34.1909 35.9496C39.2233 35.5658 43.5424 32.7957 46.041 28.3495C48.8188 23.4057 48.7646 19.3796 45.8701 15.6787Z" fill="#8BA1AD"/>
</svg>
