<svg width="91" height="69" viewBox="0 0 91 69" fill="none" xmlns="http://www.w3.org/2000/svg">
<path d="M55.2238 40.2377L55.0549 40.0555C54.9057 39.8666 40.137 21.1397 37.5591 17.8359C35.9303 15.7507 35.1857 15.1595 31.6014 17.711C30.1394 18.7519 29.3089 19.8761 29.1322 21.0528C28.9066 22.5529 29.8149 23.7791 29.8239 23.7914L47.8519 46.664C48.1043 46.8824 48.9829 47.5976 50.1195 48.0295C51.6993 48.63 53.0358 48.4262 54.2063 47.4039C55.7582 46.0476 56.5539 44.6803 56.5706 43.3394C56.593 41.5481 55.2372 40.2505 55.2238 40.2377Z" fill="#6F848D"/>
<path d="M47.2116 18.1081C47.9183 17.3774 48.8803 17.1771 49.5634 17.227L53.6205 17.0315C50.979 13.6434 48.7131 10.7583 47.8353 9.69455C46.8139 8.4565 45.7573 7.17698 41.781 10.1539C38.544 12.5774 39.5903 15.3033 39.8865 15.9205L47.6302 25.618C46.9541 24.1505 46.5422 22.7399 46.3789 21.636C46.1511 20.1028 46.4313 18.9159 47.2116 18.1081Z" fill="#6F848D"/>
<path d="M58.8755 3.25774C56.5319 0.489116 56.0448 -0.0888755 51.8879 2.7499C50.6142 3.61909 49.8804 4.55844 49.7059 5.54191C49.5094 6.65333 50.0872 7.58738 50.1723 7.71798L57.3598 16.8502L69.2866 16.2762C64.8525 10.6741 60.1909 4.81125 58.8755 3.25774Z" fill="#6F848D"/>
<path d="M59.4126 40.0292C59.4126 40.0292 58.9315 39.7049 58.7407 39.5046L58.2975 38.9827L52.5324 31.7631C54.4312 33.111 56.7912 33.9718 59.6593 33.8579C62.3095 33.7529 64.6239 33.647 66.4934 33.5557C66.8992 34.1011 67.4469 35.0519 67.4245 36.1933C67.4151 36.6583 67.3059 37.1265 67.1103 37.5964C66.7458 38.4726 66.064 39.3546 65.0602 40.2317C63.8901 41.254 62.5532 41.4583 60.9734 40.8578C60.3639 40.6262 59.833 40.3142 59.428 40.0398L59.4126 40.0292Z" fill="#6F848D"/>
<path d="M85.8656 30.4968L78.8501 21.7029C78.8355 21.6853 78.8222 21.6672 78.8084 21.6491C78.8024 21.6407 77.7204 20.2063 76.1703 19.7047C75.0307 19.3363 73.0988 19.2824 72.4213 19.2926L49.5946 20.3916C49.4906 20.3965 49.4605 20.4049 49.4008 20.3974C49.3784 20.528 49.3664 20.7742 49.4235 21.1585C49.733 23.2454 52.3583 30.9812 59.5428 30.6962C65.5107 30.4593 69.8043 30.2179 70.989 30.1487C71.1764 30.1248 71.3505 30.1195 71.5057 30.1297C72.3186 30.1822 72.9514 30.8753 72.9497 31.711C72.9492 32.203 72.7257 32.6402 72.3788 32.9305C72.3646 33.0002 72.3526 33.0699 72.3289 33.1388C72.2919 33.2486 70.1482 39.7663 73.6667 45.9305C74.1138 46.7123 73.8571 47.7183 73.0954 48.1767C72.8645 48.3157 72.6131 48.3885 72.3629 48.4004C71.7877 48.4282 71.2177 48.1352 70.9065 47.5903C69.5984 45.2982 68.9303 42.9937 68.6337 40.8856C67.6953 42.0504 66.4973 43.1168 65.2072 43.6891C63.8273 44.3011 61.6857 44.519 59.4215 43.5603C59.3803 43.9212 59.3179 44.2887 59.2414 44.6668C58.5747 47.9609 55.5888 50.535 53.2043 51.0314C49.387 51.8273 46.0718 49.2131 45.3926 48.4701C45.3307 48.4026 45.2774 48.3347 45.2305 48.2667L26.1007 24.3136L10.0458 3.12294C9.98393 3.04087 9.93019 2.95351 9.88506 2.8613C9.88506 2.8613 9.21531 1.59369 7.88056 1.27822C7.62564 1.21821 7.35439 1.19483 7.06939 1.20895C6.03769 1.25836 4.82416 1.79047 3.50659 2.77835C1.90574 3.97934 1.04858 5.21606 0.960883 6.45279C0.851695 7.98204 1.96851 9.18346 1.97968 9.19538C2.02396 9.23994 2.06566 9.28715 2.10392 9.33657C2.24191 9.51393 16.0623 27.3267 32.398 50.0197C45.341 67.9996 56.5246 69.3418 63.805 68.7863C73.3107 68.0614 81.4689 62.829 86.1885 54.4305C91.4355 45.0922 91.3332 37.4874 85.8656 30.4968Z" fill="#6F848D"/>
</svg>
