<svg viewBox="0 0 26 20" fill="none" xmlns="http://www.w3.org/2000/svg">
<path d="M0.840088 1.88578V0H8.77943V1.88578H6.03188V8.62069H3.58763V1.88578H0.840088Z" fill="inherit"/>
<path d="M9.71275 8.62069V0H16.2962V1.88578H12.1927V3.36746H15.9572V5.25323H12.1927V6.73491H16.2783V8.62069H9.71275Z" fill="inherit"/>
<path d="M17.5261 8.62069V0H20.006V3.48532H20.1309L22.8784 0H25.7687L22.6822 3.8389L25.8401 8.62069H22.8784L20.8267 5.38793L20.006 6.39817V8.62069H17.5261Z" fill="inherit"/>
<path d="M0.840088 9.58819H3.42971L5.21102 13.955H5.30083L7.08214 9.58819H9.67176V17.2979H7.63599V12.8407H7.57611L5.86965 17.2376H4.6422L2.93574 12.8106H2.87586V17.2979H0.840088V9.58819Z" fill="inherit"/>
<path d="M12.6487 17.2979H10.4034L12.9331 9.58819H15.7772L18.307 17.2979H16.0616L14.3851 11.7114H14.3252L12.6487 17.2979ZM12.2296 14.2562H16.4508V15.8222H12.2296V14.2562Z" fill="inherit"/>
<path d="M25.8401 12.4793H23.7295C23.7145 12.3036 23.6746 12.1443 23.6097 12.0012C23.5473 11.8582 23.46 11.7352 23.3478 11.6323C23.238 11.5269 23.1045 11.4466 22.9473 11.3914C22.7902 11.3337 22.6118 11.3048 22.4122 11.3048C22.0629 11.3048 21.7673 11.3901 21.5253 11.5608C21.2858 11.7314 21.1037 11.9761 20.9789 12.2949C20.8567 12.6136 20.7956 12.9963 20.7956 13.443C20.7956 13.9149 20.8579 14.3101 20.9827 14.6289C21.1099 14.9451 21.2933 15.1835 21.5328 15.3441C21.7723 15.5022 22.0604 15.5813 22.3972 15.5813C22.5893 15.5813 22.7615 15.5574 22.9137 15.5097C23.0658 15.4595 23.1981 15.388 23.3103 15.2952C23.4226 15.2023 23.5137 15.0906 23.5835 14.9601C23.6559 14.8271 23.7045 14.6778 23.7295 14.5122L25.8401 14.5272C25.8151 14.8535 25.7241 15.186 25.5669 15.5248C25.4097 15.8611 25.1864 16.1723 24.897 16.4584C24.6101 16.742 24.2546 16.9704 23.8305 17.1435C23.4064 17.3167 22.9137 17.4033 22.3523 17.4033C21.6488 17.4033 21.0176 17.2514 20.4588 16.9478C19.9024 16.6441 19.4621 16.1974 19.1377 15.6076C18.8159 15.0178 18.655 14.2963 18.655 13.443C18.655 12.5847 18.8197 11.8619 19.149 11.2747C19.4783 10.6849 19.9224 10.2395 20.4812 9.93829C21.04 9.63462 21.6638 9.48279 22.3523 9.48279C22.8363 9.48279 23.2816 9.54929 23.6883 9.68231C24.095 9.81532 24.4517 10.0098 24.7586 10.2658C25.0654 10.5193 25.3124 10.8317 25.4995 11.2032C25.6867 11.5746 25.8002 12 25.8401 12.4793ZM21.9482 17.2376H22.6816L22.6218 17.584C22.9186 17.6292 23.1494 17.7346 23.3141 17.9002C23.4787 18.0658 23.5623 18.2716 23.5648 18.5176C23.5698 18.9241 23.3715 19.2441 22.9698 19.4775C22.5706 19.7109 22.0205 19.8276 21.3195 19.8276V19.0295C21.6887 19.0295 21.9706 18.9894 22.1652 18.9091C22.3598 18.8313 22.4621 18.7158 22.4721 18.5627C22.4821 18.4222 22.4272 18.3055 22.3074 18.2126C22.1902 18.1223 22.0105 18.0583 21.7685 18.0207L21.9482 17.2376Z" fill="inherit"/>
</svg>
